<svg id="svg" version="1.1" xmlns="http://www.w3.org/2000/svg" xmlns:xlink="http://www.w3.org/1999/xlink" width="400" height="402.2099447513812" viewBox="0, 0, 400,402.2099447513812"><g id="svgg"><path id="path0" d="M107.200 0.548 C 107.200 1.561,109.910 1.591,200.844 1.596 C 291.726 1.600,295.200 1.561,295.200 0.546 C 295.200 0.086,280.326 0.000,201.200 0.000 C 121.904 0.000,107.200 0.086,107.200 0.548 M95.141 1.468 C 94.395 1.666,93.886 3.082,94.437 3.423 C 94.817 3.658,102.392 3.758,102.579 3.531 C 102.639 3.459,102.806 2.905,102.951 2.300 L 103.215 1.200 99.508 1.246 C 97.468 1.272,95.503 1.372,95.141 1.468 M299.273 2.300 C 299.473 4.031,308.000 4.497,308.000 2.777 C 308.000 1.589,306.718 1.200,302.800 1.200 L 299.147 1.200 299.273 2.300 M87.800 3.506 C 85.668 5.073,86.731 6.000,90.660 6.000 C 92.416 6.000,93.670 4.684,92.979 3.566 C 92.711 3.132,88.378 3.082,87.800 3.506 M309.467 3.467 C 307.703 5.231,310.339 6.431,314.476 5.747 L 315.952 5.503 315.101 4.352 C 314.265 3.220,310.331 2.603,309.467 3.467 M80.800 6.800 C 80.800 8.516,85.371 8.712,85.696 7.009 C 85.952 5.673,85.820 5.600,83.133 5.600 C 80.807 5.600,80.800 5.604,80.800 6.800 M316.712 6.783 C 316.980 8.610,321.737 8.726,321.527 6.900 C 321.406 5.850,321.290 5.795,318.967 5.683 L 316.533 5.565 316.712 6.783 M75.600 7.965 C 74.982 8.130,74.551 8.571,74.472 9.116 C 74.360 9.892,74.102 10.000,72.364 10.000 C 70.656 10.000,70.322 10.134,69.941 10.969 C 69.593 11.733,69.084 11.996,67.548 12.207 C 65.929 12.430,65.555 12.639,65.355 13.438 C 65.188 14.101,64.831 14.400,64.203 14.400 C 62.965 14.400,62.560 16.244,63.668 16.836 C 64.730 17.405,65.925 16.931,66.075 15.881 C 66.180 15.139,66.492 14.981,68.054 14.880 C 69.761 14.769,69.927 14.664,70.150 13.550 C 70.377 12.415,70.499 12.343,72.096 12.407 C 74.671 12.509,74.737 12.482,74.873 11.302 C 74.994 10.254,75.100 10.203,77.181 10.202 C 79.301 10.200,79.369 10.165,79.620 8.950 C 79.898 7.607,78.349 7.228,75.600 7.965 M322.651 8.714 C 323.045 10.361,323.168 10.460,324.741 10.389 C 327.393 10.268,327.600 10.341,327.600 11.400 C 327.600 12.344,327.722 12.400,329.773 12.400 C 331.847 12.400,331.953 12.450,332.073 13.500 C 332.189 14.504,332.374 14.617,334.197 14.800 C 335.793 14.960,336.222 15.160,336.335 15.800 C 336.548 16.996,336.971 17.273,338.142 16.979 C 339.785 16.566,339.689 14.400,338.028 14.400 C 337.117 14.400,336.827 14.200,336.728 13.500 C 336.623 12.761,336.237 12.535,334.568 12.238 C 333.102 11.977,332.434 11.643,332.168 11.038 C 331.882 10.387,331.377 10.173,329.900 10.078 C 328.652 9.998,328.000 9.774,328.000 9.427 C 328.000 8.457,326.748 7.842,324.559 7.735 L 322.392 7.629 322.651 8.714 M59.725 16.696 C 59.198 16.788,58.800 17.192,58.725 17.710 C 58.634 18.332,58.215 18.649,57.208 18.854 C 56.442 19.009,55.452 19.585,55.008 20.134 C 54.563 20.682,53.750 21.191,53.200 21.265 C 52.520 21.357,52.159 21.688,52.072 22.300 C 51.979 22.954,51.676 23.200,50.962 23.200 C 50.191 23.200,49.928 23.458,49.740 24.400 C 49.558 25.308,49.280 25.600,48.597 25.600 C 48.030 25.600,47.615 25.898,47.485 26.398 C 47.370 26.837,46.944 27.303,46.538 27.434 C 44.915 27.958,43.865 28.633,43.702 29.257 C 43.607 29.618,43.005 30.019,42.365 30.147 C 41.569 30.306,41.200 30.621,41.200 31.140 C 41.200 31.664,40.828 31.974,40.000 32.140 C 39.058 32.328,38.800 32.591,38.800 33.362 C 38.800 34.076,38.554 34.379,37.900 34.472 C 37.318 34.555,36.954 34.922,36.871 35.510 C 36.800 36.010,36.322 36.695,35.809 37.031 C 35.296 37.367,34.755 38.127,34.606 38.719 C 34.248 40.147,33.665 40.800,32.751 40.800 C 32.183 40.800,32.000 41.093,32.000 42.000 C 32.000 43.013,31.844 43.200,31.000 43.200 C 30.214 43.200,30.000 43.403,30.000 44.150 C 30.000 44.886,29.729 45.154,28.800 45.340 C 27.784 45.543,27.600 45.766,27.600 46.790 C 27.600 47.586,27.400 48.000,27.014 48.000 C 26.244 48.000,25.600 49.250,25.600 50.747 C 25.600 51.759,25.427 51.967,24.500 52.073 C 23.634 52.173,23.373 52.435,23.273 53.309 C 23.202 53.919,22.718 54.879,22.196 55.442 C 21.674 56.006,21.191 56.939,21.123 57.517 C 21.036 58.259,20.706 58.637,20.000 58.800 C 19.112 59.006,18.986 59.267,18.879 61.116 C 18.770 62.998,18.668 63.200,17.825 63.200 C 16.994 63.200,16.862 63.441,16.617 65.400 C 16.397 67.161,16.197 67.600,15.614 67.600 C 13.819 67.600,13.805 72.584,15.600 72.721 C 16.903 72.821,16.906 72.816,16.807 69.929 C 16.747 68.157,16.803 68.052,17.872 67.929 C 18.928 67.808,19.013 67.660,19.200 65.600 C 19.369 63.737,19.530 63.381,20.251 63.279 C 20.945 63.180,21.151 62.791,21.365 61.179 C 21.602 59.392,21.727 59.200,22.650 59.200 C 23.622 59.200,23.665 59.107,23.536 57.300 C 23.410 55.533,23.470 55.390,24.400 55.260 C 25.548 55.099,25.985 54.568,25.994 53.328 C 25.998 52.730,26.283 52.415,26.900 52.328 C 27.668 52.219,27.818 51.921,27.922 50.300 C 28.031 48.608,28.146 48.400,28.983 48.400 C 29.666 48.400,30.035 48.074,30.340 47.200 C 30.610 46.427,31.032 46.000,31.529 46.000 C 32.061 46.000,32.372 45.638,32.534 44.830 C 32.699 44.004,33.037 43.622,33.684 43.530 C 34.345 43.436,34.635 43.094,34.727 42.300 C 34.826 41.436,35.062 41.200,35.827 41.200 C 36.605 41.200,36.800 40.994,36.800 40.174 C 36.800 38.826,37.478 37.600,38.224 37.600 C 38.564 37.600,38.921 37.094,39.055 36.423 C 39.220 35.602,39.629 35.129,40.413 34.855 C 41.132 34.605,41.583 34.130,41.668 33.536 C 41.746 32.985,42.125 32.549,42.600 32.463 C 43.675 32.267,44.842 31.191,44.529 30.685 C 44.390 30.460,44.472 30.397,44.711 30.545 C 44.949 30.692,45.258 30.630,45.396 30.407 C 45.534 30.183,46.074 30.000,46.596 30.000 C 47.275 30.000,47.581 29.744,47.672 29.100 C 47.762 28.465,48.113 28.164,48.862 28.077 C 49.593 27.993,49.999 27.657,50.163 27.004 C 50.329 26.344,50.734 26.014,51.485 25.926 C 52.255 25.837,52.635 25.515,52.799 24.815 C 52.943 24.199,53.398 23.742,54.012 23.597 C 54.558 23.468,55.062 23.016,55.144 22.582 C 55.337 21.563,55.920 21.214,57.436 21.206 C 58.353 21.202,58.786 20.949,59.114 20.229 C 59.400 19.602,59.955 19.212,60.678 19.129 C 61.600 19.023,61.821 18.783,61.919 17.787 C 62.044 16.515,61.707 16.347,59.725 16.696 M340.369 17.709 C 340.580 18.741,340.868 19.038,341.816 19.201 C 342.649 19.345,343.037 19.665,343.125 20.282 C 343.230 21.019,343.546 21.177,345.109 21.279 C 346.709 21.383,347.000 21.537,347.198 22.385 C 347.342 22.997,347.798 23.458,348.400 23.600 C 349.002 23.742,349.459 24.203,349.602 24.815 C 349.749 25.442,350.162 25.848,350.738 25.931 C 351.245 26.004,351.801 26.475,352.001 27.002 C 352.237 27.623,352.740 27.987,353.479 28.071 C 354.266 28.162,354.636 28.454,354.722 29.052 C 354.815 29.708,355.217 29.964,356.462 30.164 C 357.620 30.349,358.141 30.651,358.291 31.227 C 358.407 31.670,359.019 32.299,359.651 32.626 C 360.283 32.953,360.800 33.476,360.800 33.788 C 360.800 34.101,361.287 34.591,361.883 34.878 C 362.479 35.165,363.071 35.850,363.199 36.400 C 363.347 37.032,363.758 37.447,364.316 37.528 C 364.999 37.627,365.256 38.007,365.447 39.206 C 365.636 40.386,365.899 40.786,366.548 40.878 C 367.146 40.964,367.438 41.334,367.529 42.121 C 367.613 42.860,367.977 43.363,368.598 43.599 C 369.125 43.799,369.596 44.355,369.669 44.862 C 369.752 45.438,370.158 45.851,370.785 45.998 C 371.397 46.141,371.858 46.598,372.000 47.200 C 372.142 47.802,372.603 48.258,373.215 48.402 C 374.065 48.601,374.217 48.890,374.322 50.516 C 374.431 52.200,374.545 52.400,375.397 52.400 C 376.179 52.400,376.372 52.632,376.475 53.698 C 376.580 54.787,376.793 55.031,377.800 55.211 C 378.736 55.379,378.963 55.599,378.833 56.213 C 378.406 58.227,378.593 58.951,379.600 59.193 C 380.464 59.400,380.616 59.685,380.721 61.289 C 380.830 62.973,380.949 63.169,382.001 63.400 C 383.077 63.636,383.169 63.804,383.280 65.727 C 383.384 67.529,383.518 67.817,384.300 67.928 C 385.181 68.053,385.406 68.593,385.248 70.200 C 385.072 71.976,385.567 72.800,386.808 72.800 C 388.640 72.800,388.352 67.943,386.504 67.675 C 385.765 67.568,385.623 67.250,385.520 65.475 C 385.416 63.671,385.282 63.383,384.500 63.272 C 383.864 63.182,383.600 62.874,383.600 62.222 C 383.600 59.928,383.122 58.800,382.150 58.800 C 381.379 58.800,381.200 58.591,381.200 57.695 C 381.200 56.932,380.921 56.467,380.300 56.195 C 379.775 55.965,379.353 55.383,379.288 54.800 C 379.021 52.418,378.798 52.000,377.792 52.000 C 377.008 52.000,376.800 51.796,376.800 51.026 C 376.800 49.498,376.120 48.092,375.248 47.815 C 374.761 47.661,374.401 47.139,374.325 46.481 C 374.236 45.712,373.940 45.363,373.300 45.272 C 372.649 45.180,372.400 44.876,372.400 44.172 C 372.400 43.359,372.204 43.200,371.200 43.200 C 370.128 43.200,370.000 43.069,370.000 41.976 C 370.000 41.303,369.844 40.849,369.653 40.967 C 369.175 41.263,368.181 40.042,367.726 38.600 C 367.518 37.940,366.963 37.226,366.492 37.013 C 366.011 36.795,365.585 36.183,365.518 35.613 C 365.438 34.928,365.121 34.560,364.538 34.477 C 364.014 34.403,363.579 33.972,363.432 33.383 C 363.291 32.825,362.802 32.315,362.279 32.184 C 361.780 32.059,361.197 31.561,360.985 31.078 C 360.773 30.595,360.235 30.148,359.788 30.084 C 359.341 30.020,358.801 29.582,358.588 29.112 C 358.375 28.641,357.570 28.051,356.800 27.800 C 356.030 27.549,355.222 26.952,355.005 26.472 C 354.738 25.882,354.253 25.600,353.505 25.600 C 352.544 25.600,352.400 25.444,352.400 24.400 C 352.400 23.389,352.244 23.200,351.408 23.200 C 350.683 23.200,350.348 22.931,350.164 22.200 C 350.002 21.552,349.633 21.200,349.117 21.200 C 348.679 21.200,347.817 20.660,347.200 20.000 C 346.421 19.166,345.701 18.800,344.840 18.800 C 343.784 18.800,343.600 18.652,343.600 17.800 C 343.600 17.038,343.385 16.793,342.700 16.770 C 342.205 16.754,341.419 16.669,340.953 16.581 C 340.192 16.437,340.132 16.552,340.369 17.709 M12.179 75.373 C 11.747 77.676,12.224 78.874,13.514 78.725 C 15.193 78.532,15.201 74.269,13.523 74.076 C 12.571 73.966,12.414 74.117,12.179 75.373 M387.600 76.373 C 387.600 78.665,387.638 78.751,388.700 78.873 L 389.800 79.000 389.661 82.052 C 389.515 85.253,389.599 85.439,391.328 85.753 C 393.135 86.080,392.726 79.824,390.887 79.005 C 390.119 78.663,390.000 78.300,390.000 76.305 C 390.000 74.011,389.995 74.000,388.800 74.000 C 387.601 74.000,387.600 74.003,387.600 76.373 M10.390 79.826 C 9.452 82.294,9.889 85.600,11.155 85.600 C 12.507 85.600,12.785 84.634,12.483 80.990 C 12.277 78.507,11.134 77.871,10.390 79.826 M195.200 79.382 C 182.070 81.931,173.440 98.091,178.453 110.741 C 183.377 123.166,193.766 128.606,207.500 125.950 C 213.857 124.720,221.548 117.897,223.427 111.821 C 223.703 110.929,224.248 109.480,224.638 108.600 C 227.480 102.188,223.323 89.511,216.675 84.320 C 215.754 83.600,214.774 82.796,214.498 82.532 C 214.221 82.268,213.591 81.927,213.098 81.774 C 212.604 81.620,211.712 81.151,211.115 80.731 C 208.692 79.025,200.580 78.337,195.200 79.382 M8.425 87.576 C 8.018 87.834,7.799 88.989,7.678 91.524 L 7.507 95.107 8.653 94.894 C 10.190 94.608,10.388 94.210,10.388 91.400 C 10.389 87.523,9.928 86.625,8.425 87.576 M392.267 87.467 C 390.750 88.983,392.326 95.200,394.226 95.200 C 394.799 95.200,394.353 87.668,393.767 87.443 C 392.954 87.131,392.597 87.136,392.267 87.467 M207.829 90.067 C 214.840 94.164,217.894 104.893,213.545 110.153 C 213.159 110.619,212.284 111.665,211.600 112.478 C 204.358 121.080,189.959 117.172,187.367 105.900 C 184.644 94.064,197.562 84.068,207.829 90.067 M6.048 98.942 C 5.717 99.341,5.625 124.686,5.699 194.842 L 5.800 290.200 6.900 290.327 C 7.965 290.449,8.000 290.391,8.007 288.527 C 8.016 285.776,8.017 103.470,8.008 100.700 C 8.000 98.299,7.187 97.570,6.048 98.942 M394.387 99.900 C 394.370 101.945,394.369 287.461,394.386 289.128 C 394.405 290.964,395.992 290.824,396.476 288.944 C 397.139 286.372,396.670 99.215,396.000 98.792 C 394.843 98.060,394.400 98.365,394.387 99.900 M172.800 137.175 C 171.060 137.709,165.600 141.778,165.600 142.541 C 165.600 142.765,165.219 143.354,164.753 143.850 C 162.401 146.354,161.351 166.219,162.993 177.151 C 164.500 187.190,168.604 191.630,178.757 194.207 C 179.944 194.508,181.060 194.900,181.238 195.078 C 181.416 195.256,181.616 203.780,181.681 214.019 C 181.785 230.233,181.882 232.763,182.437 233.618 C 182.787 234.158,183.206 235.140,183.367 235.800 C 184.146 238.980,188.597 243.797,192.830 246.039 L 195.400 247.400 201.200 247.378 C 206.883 247.356,207.047 247.331,209.324 246.127 C 211.793 244.823,216.800 240.652,216.800 239.900 C 216.800 239.653,217.151 239.077,217.581 238.620 C 218.011 238.163,218.855 236.441,219.457 234.794 L 220.552 231.800 220.776 213.409 L 221.000 195.019 222.000 194.729 C 237.488 190.242,239.500 186.729,239.888 163.494 C 240.143 148.200,239.759 146.095,235.939 141.862 C 234.617 140.398,233.309 139.200,233.030 139.200 C 232.752 139.200,232.215 138.859,231.837 138.441 C 231.460 138.024,230.362 137.484,229.398 137.241 C 227.371 136.731,174.451 136.669,172.800 137.175 M116.600 142.609 C 115.500 143.150,114.321 143.594,113.980 143.596 C 110.860 143.615,102.960 151.773,101.334 156.655 C 100.978 157.725,100.487 158.853,100.243 159.161 C 99.645 159.919,99.410 169.088,99.944 170.826 C 102.595 179.452,108.592 186.354,114.872 188.010 C 115.822 188.260,117.050 188.765,117.600 189.133 C 119.281 190.255,128.533 190.082,130.400 188.894 C 131.170 188.404,132.180 188.002,132.644 188.001 C 133.108 188.001,134.125 187.568,134.903 187.040 C 135.681 186.512,136.659 185.972,137.077 185.839 C 138.179 185.489,142.676 181.005,143.442 179.491 C 143.802 178.781,144.389 177.867,144.747 177.459 C 145.552 176.543,147.100 172.147,147.656 169.200 C 149.207 160.984,144.087 149.414,137.200 145.573 C 136.430 145.143,135.530 144.620,135.200 144.409 C 130.648 141.508,120.780 140.553,116.600 142.609 M271.200 142.668 C 266.058 144.699,264.551 145.638,261.421 148.762 C 259.014 151.163,257.450 153.784,255.548 158.600 C 254.417 161.463,254.129 170.511,255.130 171.716 C 255.422 172.068,255.905 173.283,256.205 174.418 C 256.504 175.552,257.009 176.777,257.326 177.140 C 257.644 177.503,258.187 178.361,258.534 179.046 C 259.993 181.929,267.550 188.000,269.680 188.000 C 269.983 188.000,270.944 188.392,271.815 188.870 C 273.948 190.042,283.159 190.228,284.800 189.133 C 285.350 188.765,286.578 188.260,287.528 188.010 C 292.120 186.799,300.800 178.372,300.800 175.124 C 300.800 174.819,301.187 173.856,301.661 172.985 C 302.669 171.130,303.191 163.184,302.464 160.776 C 299.957 152.474,292.720 143.622,288.420 143.596 C 288.079 143.594,286.900 143.150,285.800 142.609 C 282.802 141.134,275.005 141.166,271.200 142.668 M225.447 146.356 C 226.130 146.552,227.028 146.998,227.444 147.348 C 227.860 147.698,228.560 148.244,229.000 148.561 C 229.775 149.118,229.800 149.595,229.800 163.703 L 229.800 178.269 228.200 180.603 C 226.234 183.471,223.220 184.624,216.600 185.042 C 214.283 185.188,212.221 185.531,211.700 185.856 L 210.800 186.418 210.800 207.076 C 210.800 230.628,210.673 232.125,208.468 234.600 C 204.255 239.327,198.145 239.327,193.932 234.600 C 191.727 232.126,191.600 230.625,191.600 207.116 C 191.600 183.117,192.235 185.627,186.031 185.116 C 178.940 184.532,176.151 183.479,174.200 180.648 L 172.600 178.326 172.600 163.734 L 172.600 149.143 174.000 147.974 C 174.770 147.331,175.940 146.640,176.600 146.438 C 178.154 145.964,223.812 145.887,225.447 146.356 M127.580 152.011 C 129.282 152.464,130.998 153.209,131.580 153.748 C 132.141 154.268,132.894 154.852,133.254 155.046 C 137.982 157.603,139.381 168.105,135.711 173.484 C 126.443 187.068,105.071 177.039,110.156 161.492 C 111.065 158.709,112.824 155.649,113.739 155.254 C 113.925 155.173,114.657 154.598,115.366 153.976 C 118.030 151.638,123.105 150.821,127.580 152.011 M283.323 152.195 C 291.516 154.577,295.810 166.325,290.918 172.976 C 290.422 173.649,289.815 174.560,289.567 175.000 C 286.660 180.171,275.659 181.404,270.170 177.175 C 261.521 170.511,263.379 154.972,273.129 152.432 C 273.938 152.221,275.230 151.864,276.000 151.638 C 277.711 151.136,280.380 151.339,283.323 152.195 M95.921 200.126 C 90.963 201.771,87.486 205.019,85.848 209.536 C 84.590 213.002,84.393 233.283,85.548 240.280 C 86.663 247.030,90.259 253.159,93.740 254.238 C 94.213 254.385,95.089 254.850,95.688 255.271 C 96.286 255.692,98.143 256.275,99.815 256.565 C 104.149 257.319,103.773 255.527,104.001 276.519 C 104.196 294.438,104.229 295.055,105.069 296.800 C 105.546 297.790,106.065 299.050,106.223 299.600 C 107.329 303.455,112.999 308.519,117.395 309.578 C 118.492 309.843,119.625 310.255,119.914 310.494 C 121.731 312.002,130.088 310.269,134.447 307.481 C 137.321 305.642,141.600 300.509,141.600 298.900 C 141.600 298.682,141.960 297.377,142.400 296.000 C 143.148 293.658,143.200 292.394,143.200 276.528 C 143.200 255.826,142.803 257.365,148.400 256.388 C 149.830 256.138,151.270 255.700,151.600 255.415 C 151.930 255.130,152.830 254.585,153.600 254.205 C 155.567 253.233,158.429 250.074,159.921 247.228 C 163.481 240.437,163.518 211.027,159.973 206.566 C 159.328 205.754,158.800 204.957,158.800 204.794 C 158.800 203.943,154.157 201.038,151.398 200.162 L 148.370 199.200 123.485 199.219 C 98.868 199.237,98.571 199.247,95.921 200.126 M253.000 199.473 C 246.751 200.971,242.382 204.788,240.742 210.181 C 239.716 213.553,239.653 234.578,240.650 240.870 C 241.550 246.553,245.844 254.000,248.221 254.000 C 248.478 254.000,249.373 254.464,250.209 255.032 C 251.161 255.678,252.837 256.256,254.692 256.579 C 258.933 257.316,258.573 255.603,258.801 276.119 C 258.961 290.548,259.114 294.398,259.558 295.182 C 259.865 295.721,260.348 297.045,260.633 298.124 C 261.379 300.951,266.001 307.200,267.347 307.200 C 267.555 307.200,268.281 307.623,268.962 308.139 C 269.643 308.656,271.146 309.304,272.301 309.579 C 273.457 309.855,274.490 310.221,274.596 310.393 C 274.940 310.950,279.000 311.250,280.623 310.839 C 290.055 308.452,294.139 305.196,296.731 298.000 C 298.300 293.644,298.365 292.759,298.383 275.376 C 298.403 255.922,298.096 257.348,302.428 256.590 C 313.908 254.582,317.600 246.745,317.600 224.382 C 317.600 208.370,315.769 203.956,307.714 200.548 L 305.000 199.400 279.400 199.341 C 265.320 199.308,253.440 199.368,253.000 199.473 M151.094 211.308 L 152.600 212.816 152.600 226.515 L 152.600 240.214 151.185 242.599 C 148.893 246.462,147.260 247.238,140.927 247.472 C 135.252 247.681,133.789 248.045,133.444 249.333 C 133.316 249.810,133.208 259.591,133.205 271.069 C 133.199 295.001,133.192 295.074,130.423 297.999 C 126.121 302.542,118.233 301.497,115.338 296.000 C 114.653 294.701,114.586 292.960,114.400 271.877 L 114.200 249.154 113.241 248.431 C 112.461 247.842,111.256 247.671,106.768 247.509 C 95.623 247.109,94.605 245.045,94.872 223.400 C 95.062 207.943,91.605 209.565,124.094 209.697 L 149.587 209.800 151.094 211.308 M305.074 210.380 C 307.314 211.745,307.388 212.126,307.530 222.865 C 307.703 235.891,307.242 241.560,305.878 243.180 C 305.327 243.835,304.814 244.512,304.738 244.685 C 303.952 246.476,299.807 247.600,293.990 247.600 C 290.746 247.600,289.930 247.729,289.144 248.364 L 288.200 249.129 287.996 271.864 C 287.854 287.737,287.654 294.902,287.333 295.600 C 284.925 300.840,276.715 302.551,272.523 298.686 C 269.207 295.630,269.424 297.395,269.200 271.733 C 269.090 259.156,268.910 248.785,268.800 248.687 C 267.936 247.915,266.352 247.600,263.326 247.598 C 250.684 247.589,249.393 245.283,249.671 223.200 C 249.811 212.097,249.878 211.751,252.126 210.380 C 254.111 209.169,303.089 209.169,305.074 210.380 M7.644 297.114 C 7.627 300.392,8.037 301.600,9.167 301.600 C 11.277 301.600,10.863 294.716,8.730 294.321 L 7.659 294.122 7.644 297.114 M393.200 294.399 C 391.967 294.691,391.595 301.283,392.800 301.494 C 394.161 301.732,394.436 301.015,394.317 297.547 L 394.200 294.162 393.200 294.399 M391.101 303.526 C 389.782 303.678,389.523 304.452,389.685 307.773 C 389.794 310.014,389.744 310.160,388.800 310.392 C 387.859 310.624,387.797 310.802,387.754 313.419 C 387.708 316.157,387.690 316.203,386.554 316.402 C 385.457 316.595,385.394 316.719,385.280 318.902 C 385.168 321.041,385.092 321.200,384.180 321.200 C 383.259 321.200,383.200 321.332,383.200 323.400 C 383.200 325.472,383.143 325.600,382.214 325.600 C 381.332 325.600,381.199 325.812,380.962 327.605 C 380.742 329.259,380.533 329.652,379.768 329.844 C 378.991 330.039,378.821 330.375,378.720 331.922 C 378.616 333.517,378.464 333.799,377.600 334.000 C 376.822 334.180,376.572 334.523,376.473 335.543 C 376.293 337.391,378.914 337.349,379.127 335.500 C 379.197 334.885,379.500 334.400,379.812 334.400 C 380.564 334.400,381.200 333.128,381.200 331.626 C 381.200 330.830,381.400 330.400,381.771 330.400 C 382.864 330.400,383.600 329.181,383.600 327.371 C 383.600 325.749,383.684 325.600,384.600 325.600 C 385.545 325.600,385.600 325.480,385.600 323.400 C 385.600 321.346,385.664 321.200,386.557 321.200 C 387.665 321.200,388.000 320.547,388.000 318.385 C 388.000 317.266,388.278 316.559,389.000 315.836 C 389.825 315.011,390.000 314.450,390.000 312.626 C 390.000 310.616,390.089 310.393,390.976 310.170 C 392.891 309.690,393.011 303.307,391.101 303.526 M10.000 306.609 C 10.000 309.431,10.062 309.645,11.002 310.074 C 12.280 310.656,12.303 310.623,12.410 308.000 C 12.582 303.772,12.535 303.600,11.200 303.600 L 10.000 303.600 10.000 306.609 M12.101 311.113 C 11.632 312.335,12.400 315.403,13.374 316.200 C 14.128 316.816,14.380 317.455,14.476 318.984 C 14.585 320.724,14.723 320.997,15.600 321.204 C 16.221 321.351,16.615 321.735,16.641 322.220 C 16.663 322.649,16.708 323.585,16.741 324.300 C 16.791 325.404,16.951 325.600,17.800 325.600 C 18.746 325.600,18.800 325.719,18.800 327.810 C 18.800 329.937,18.844 330.029,19.980 330.256 C 21.059 330.472,21.170 330.650,21.280 332.346 C 21.382 333.920,21.536 334.219,22.300 334.328 C 23.000 334.427,23.200 334.717,23.200 335.628 C 23.200 336.705,23.316 336.800,24.625 336.800 C 26.466 336.800,26.615 334.420,24.800 334.000 C 23.934 333.799,23.784 333.518,23.679 331.909 C 23.577 330.346,23.419 330.030,22.682 329.925 C 21.982 329.825,21.736 329.420,21.463 327.923 C 21.193 326.438,20.942 326.020,20.261 325.923 C 19.593 325.827,19.376 325.486,19.292 324.400 C 19.098 321.885,18.832 321.260,17.899 321.128 C 17.104 321.015,16.986 320.736,16.881 318.725 C 16.769 316.585,16.697 316.442,15.681 316.325 C 14.650 316.206,14.606 316.110,14.727 314.234 C 14.918 311.276,14.592 310.393,13.346 310.496 C 12.773 310.544,12.213 310.821,12.101 311.113 M375.500 337.527 C 374.677 337.621,374.398 337.873,374.394 338.527 C 374.386 339.694,373.966 340.276,373.000 340.458 C 372.536 340.545,372.146 340.986,372.072 341.508 C 371.999 342.017,371.438 342.670,370.784 343.008 C 369.791 343.522,369.637 343.818,369.712 345.080 C 369.784 346.288,369.623 346.643,368.817 347.055 C 368.276 347.331,367.696 347.929,367.528 348.384 C 367.359 348.839,366.767 349.385,366.211 349.596 C 365.655 349.807,365.200 350.259,365.200 350.600 C 365.200 350.941,364.765 351.385,364.234 351.587 C 363.703 351.789,363.148 352.335,363.000 352.800 C 362.852 353.265,362.297 353.811,361.766 354.013 C 361.235 354.215,360.800 354.645,360.800 354.968 C 360.800 355.292,360.305 355.793,359.700 356.082 C 359.079 356.378,358.544 356.998,358.472 357.504 C 358.390 358.083,358.068 358.400,357.562 358.400 C 357.095 358.400,356.626 358.805,356.397 359.407 C 356.187 359.961,355.566 360.585,355.018 360.793 C 354.459 361.006,353.911 361.616,353.768 362.186 C 353.546 363.068,353.297 363.200,351.851 363.200 C 350.512 363.200,350.113 363.374,349.795 364.100 C 349.578 364.595,348.995 365.057,348.501 365.128 C 347.934 365.208,347.509 365.622,347.352 366.247 C 347.181 366.931,346.745 367.311,345.952 367.470 C 344.374 367.785,344.213 370.000,345.767 370.000 C 347.332 370.000,348.000 369.576,348.000 368.584 C 348.000 367.866,348.251 367.624,349.100 367.527 C 349.888 367.436,350.236 367.144,350.328 366.500 C 350.422 365.838,350.723 365.600,351.467 365.600 C 352.076 365.600,352.926 365.122,353.600 364.400 C 354.217 363.740,355.095 363.200,355.553 363.200 C 356.107 363.200,356.469 362.866,356.636 362.200 C 356.798 361.555,357.168 361.200,357.678 361.200 C 358.190 361.200,358.629 360.776,358.922 360.000 C 359.243 359.150,359.641 358.800,360.288 358.800 C 360.981 358.800,361.200 358.572,361.200 357.850 C 361.200 357.114,361.471 356.846,362.400 356.660 C 363.353 356.469,363.600 356.212,363.600 355.410 C 363.600 354.599,363.797 354.400,364.600 354.400 C 365.374 354.400,365.600 354.194,365.600 353.488 C 365.600 352.841,365.950 352.443,366.800 352.122 C 367.576 351.829,368.000 351.390,368.000 350.878 C 368.000 350.368,368.355 349.998,369.000 349.836 C 369.816 349.631,370.000 349.340,370.000 348.254 C 370.000 346.941,370.976 345.600,371.931 345.600 C 372.189 345.600,372.400 345.163,372.400 344.628 C 372.400 343.924,372.649 343.620,373.300 343.528 C 373.944 343.436,374.236 343.088,374.327 342.300 C 374.426 341.439,374.663 341.200,375.419 341.200 C 376.464 341.200,376.973 340.094,376.731 338.348 C 376.624 337.574,376.398 337.423,375.500 337.527 M25.749 338.189 C 25.276 339.420,25.787 340.998,26.700 341.128 C 27.354 341.221,27.600 341.524,27.600 342.238 C 27.600 343.009,27.858 343.272,28.800 343.460 C 29.703 343.641,30.000 343.921,30.000 344.592 C 30.000 345.082,30.431 345.949,30.959 346.518 C 31.486 347.087,32.085 348.058,32.290 348.676 C 32.520 349.370,32.995 349.849,33.531 349.928 C 34.137 350.017,34.400 350.337,34.400 350.984 C 34.400 351.630,34.691 351.986,35.356 352.153 C 35.935 352.299,36.411 352.788,36.563 353.397 C 36.745 354.121,37.084 354.400,37.781 354.400 C 38.537 354.400,38.774 354.639,38.873 355.500 C 38.962 356.271,39.258 356.637,39.862 356.723 C 40.387 356.798,40.821 357.228,40.970 357.823 C 41.148 358.531,41.489 358.800,42.208 358.800 C 43.002 358.800,43.200 359.001,43.200 359.810 C 43.200 360.608,43.447 360.869,44.378 361.056 C 45.181 361.216,45.595 361.563,45.678 362.146 C 45.773 362.813,46.149 363.044,47.397 363.200 C 48.643 363.356,49.108 363.641,49.518 364.500 C 49.880 365.257,50.349 365.600,51.022 365.600 C 51.791 365.600,52.000 365.808,52.000 366.573 C 52.000 367.334,52.237 367.575,53.084 367.673 C 53.860 367.764,54.234 368.084,54.400 368.800 C 54.570 369.532,54.938 369.835,55.772 369.932 C 57.813 370.168,58.393 367.859,56.393 367.459 C 55.621 367.304,55.056 366.874,54.824 366.263 C 54.625 365.739,54.088 365.212,53.632 365.092 C 53.175 364.973,52.646 364.453,52.455 363.938 C 52.163 363.149,51.828 363.000,50.354 363.000 C 48.822 363.000,48.583 362.882,48.468 362.068 C 48.383 361.465,47.933 360.995,47.192 360.737 C 46.485 360.491,46.000 360.006,45.924 359.469 C 45.846 358.922,45.467 358.553,44.901 358.472 C 44.339 358.392,43.909 357.979,43.756 357.369 C 43.610 356.787,43.125 356.296,42.556 356.153 C 41.958 356.003,41.600 355.622,41.600 355.136 C 41.600 354.632,41.178 354.211,40.400 353.940 C 39.627 353.670,39.200 353.248,39.200 352.751 C 39.200 352.297,38.789 351.824,38.200 351.600 C 37.650 351.391,37.200 350.941,37.200 350.600 C 37.200 350.259,36.747 349.808,36.193 349.597 C 35.639 349.387,35.019 348.775,34.814 348.238 C 34.598 347.670,34.058 347.207,33.522 347.131 C 32.731 347.019,32.583 346.734,32.480 345.138 C 32.378 343.559,32.215 343.240,31.406 343.037 C 30.744 342.871,30.414 342.467,30.326 341.715 C 30.237 340.948,29.914 340.565,29.222 340.403 C 28.561 340.248,28.143 339.785,27.933 338.973 C 27.601 337.693,26.140 337.169,25.749 338.189 M58.612 369.981 C 58.103 370.805,58.822 372.000,59.827 372.000 C 60.404 372.000,60.800 372.233,60.800 372.571 C 60.800 373.612,62.020 374.400,63.629 374.400 C 65.038 374.400,65.200 374.503,65.200 375.400 C 65.200 376.321,65.345 376.400,67.027 376.400 C 69.496 376.400,69.644 374.349,67.200 374.000 C 66.140 373.849,65.770 373.587,65.675 372.921 C 65.570 372.181,65.256 372.023,63.691 371.921 C 62.082 371.816,61.801 371.666,61.600 370.800 C 61.352 369.727,59.143 369.122,58.612 369.981 M341.067 369.867 C 340.920 370.013,340.800 370.444,340.800 370.824 C 340.800 371.646,340.016 372.000,338.195 372.000 C 337.113 372.000,336.831 372.172,336.728 372.896 C 336.652 373.429,336.276 373.840,335.800 373.911 C 333.481 374.258,333.200 374.422,333.200 375.430 C 333.200 376.889,336.920 376.766,337.128 375.300 C 337.231 374.571,337.511 374.400,338.595 374.400 C 340.544 374.400,341.200 374.037,341.200 372.957 C 341.200 372.160,341.401 372.000,342.400 372.000 C 343.467 372.000,343.600 371.867,343.600 370.800 C 343.600 369.624,341.926 369.008,341.067 369.867 M70.476 376.287 C 68.392 376.681,69.505 378.583,71.900 378.721 C 73.801 378.830,74.000 378.931,74.000 379.778 C 74.000 380.891,74.659 381.200,77.033 381.200 C 78.497 381.200,78.800 381.329,78.800 381.953 C 78.800 382.852,79.834 383.187,82.631 383.195 C 84.660 383.200,84.661 383.199,84.485 382.000 C 84.309 380.801,84.306 380.800,81.582 380.800 C 79.103 380.800,78.828 380.718,78.573 379.900 C 78.191 378.675,77.687 378.413,75.700 378.406 C 74.155 378.401,74.000 378.309,74.000 377.400 C 74.000 376.681,73.784 376.400,73.233 376.400 C 72.811 376.400,72.226 376.335,71.933 376.256 C 71.640 376.177,70.984 376.191,70.476 376.287 M329.726 376.272 C 327.921 376.637,328.719 378.579,330.734 378.724 L 332.454 378.849 332.327 377.524 C 332.195 376.144,331.651 375.883,329.726 376.272 M324.300 378.676 C 323.876 378.787,323.600 379.241,323.600 379.829 C 323.600 380.756,323.483 380.800,321.047 380.800 C 318.598 380.800,317.232 381.899,318.324 382.991 C 319.210 383.877,323.600 383.017,323.600 381.957 C 323.600 381.343,323.896 381.200,325.167 381.200 C 327.444 381.200,328.000 380.878,328.000 379.557 C 328.000 378.373,326.670 378.056,324.300 378.676 M85.467 383.067 C 83.955 384.579,85.643 385.586,89.700 385.595 C 91.725 385.599,92.400 385.738,92.400 386.151 C 92.400 387.056,94.497 387.650,97.233 387.521 C 99.672 387.406,99.800 387.350,99.800 386.400 C 99.800 385.411,99.761 385.400,96.200 385.354 C 91.046 385.289,91.200 385.323,91.200 384.243 C 91.200 382.964,86.528 382.005,85.467 383.067 M311.700 383.065 C 311.425 383.176,311.200 383.576,311.200 383.953 C 311.200 384.331,310.984 384.856,310.720 385.120 C 310.112 385.728,314.615 385.803,316.174 385.210 C 317.466 384.719,317.544 383.385,316.300 383.052 C 315.241 382.768,312.416 382.776,311.700 383.065 M302.695 385.438 C 302.533 385.601,302.400 386.153,302.400 386.667 C 302.400 388.411,309.565 387.765,309.907 385.989 C 310.030 385.348,303.299 384.834,302.695 385.438 M104.751 387.563 C 102.340 387.872,102.550 389.322,105.066 389.738 C 106.790 390.023,120.592 390.010,119.500 389.724 C 119.092 389.618,118.800 389.162,118.800 388.629 C 118.800 387.343,111.053 386.754,104.751 387.563 M285.500 387.467 C 284.455 387.564,283.573 387.814,283.540 388.022 C 283.507 388.230,283.462 388.625,283.440 388.900 C 283.418 389.175,283.130 389.522,282.800 389.672 C 282.021 390.025,296.298 390.005,297.562 389.651 C 298.588 389.364,299.543 388.210,299.112 387.779 C 298.796 387.463,288.154 387.219,285.500 387.467 " stroke="none" fill="#126c8a" fill-rule="evenodd"></path><path id="path1" d="M102.920 2.500 C 102.656 3.822,100.066 4.086,94.457 3.363 C 93.351 3.220,92.804 3.283,92.960 3.536 C 93.095 3.754,93.019 4.424,92.791 5.025 L 92.376 6.116 88.987 5.856 C 87.123 5.712,85.620 5.731,85.647 5.898 C 85.966 7.904,85.716 8.077,82.704 7.938 L 79.807 7.804 79.597 9.002 C 79.393 10.161,79.315 10.200,77.193 10.202 C 75.099 10.203,74.994 10.253,74.873 11.302 C 74.737 12.482,74.671 12.509,72.096 12.407 C 70.499 12.343,70.377 12.415,70.150 13.550 C 69.927 14.664,69.761 14.769,68.054 14.880 C 66.492 14.981,66.180 15.139,66.075 15.881 C 65.924 16.941,64.728 17.403,63.641 16.822 C 62.383 16.149,62.059 16.315,61.925 17.700 C 61.820 18.790,61.619 19.021,60.678 19.129 C 59.955 19.212,59.400 19.602,59.114 20.229 C 58.786 20.949,58.353 21.202,57.436 21.206 C 55.920 21.214,55.337 21.563,55.144 22.582 C 55.062 23.016,54.558 23.468,54.012 23.597 C 53.398 23.742,52.943 24.199,52.799 24.815 C 52.635 25.515,52.255 25.837,51.485 25.926 C 50.734 26.014,50.329 26.344,50.163 27.004 C 49.999 27.657,49.593 27.993,48.862 28.077 C 48.113 28.164,47.762 28.465,47.672 29.100 C 47.581 29.744,47.275 30.000,46.596 30.000 C 46.074 30.000,45.534 30.183,45.396 30.407 C 45.258 30.630,44.949 30.692,44.711 30.545 C 44.472 30.397,44.390 30.460,44.529 30.685 C 44.842 31.191,43.675 32.267,42.600 32.463 C 42.125 32.549,41.746 32.985,41.668 33.536 C 41.583 34.130,41.132 34.605,40.413 34.855 C 39.629 35.129,39.220 35.602,39.055 36.423 C 38.921 37.094,38.564 37.600,38.224 37.600 C 37.478 37.600,36.800 38.826,36.800 40.174 C 36.800 40.994,36.605 41.200,35.827 41.200 C 35.062 41.200,34.826 41.436,34.727 42.300 C 34.635 43.094,34.345 43.436,33.684 43.530 C 33.037 43.622,32.699 44.004,32.534 44.830 C 32.372 45.638,32.061 46.000,31.529 46.000 C 31.032 46.000,30.610 46.427,30.340 47.200 C 30.035 48.074,29.666 48.400,28.983 48.400 C 28.146 48.400,28.031 48.608,27.922 50.300 C 27.818 51.921,27.668 52.219,26.900 52.328 C 26.283 52.415,25.998 52.730,25.994 53.328 C 25.985 54.568,25.548 55.099,24.400 55.260 C 23.470 55.390,23.410 55.533,23.536 57.300 C 23.665 59.107,23.622 59.200,22.650 59.200 C 21.727 59.200,21.602 59.392,21.365 61.179 C 21.151 62.791,20.945 63.180,20.251 63.279 C 19.530 63.381,19.369 63.737,19.200 65.600 C 19.013 67.660,18.928 67.808,17.872 67.929 C 16.803 68.052,16.747 68.157,16.807 69.929 C 16.907 72.850,16.899 72.869,15.700 72.729 L 14.600 72.600 14.600 75.600 C 14.600 78.681,13.486 80.016,12.319 78.335 C 12.051 77.949,12.003 78.023,12.148 78.600 C 12.380 79.527,12.561 82.898,12.466 84.500 C 12.409 85.444,12.228 85.600,11.186 85.600 L 9.971 85.600 10.240 89.157 C 10.581 93.682,10.341 94.708,8.899 94.874 C 7.856 94.994,7.803 95.102,7.849 97.000 C 7.911 99.506,7.907 288.996,7.845 292.000 C 7.802 294.115,7.842 294.205,8.899 294.326 C 10.342 294.493,10.574 295.494,10.220 300.025 L 9.940 303.600 11.125 303.600 C 12.535 303.600,12.775 304.474,12.411 308.285 L 12.180 310.702 13.277 310.529 C 14.589 310.322,14.924 311.178,14.727 314.234 C 14.606 316.110,14.650 316.206,15.681 316.325 C 16.697 316.442,16.769 316.585,16.881 318.725 C 16.986 320.736,17.104 321.015,17.899 321.128 C 18.832 321.260,19.098 321.885,19.292 324.400 C 19.376 325.486,19.593 325.827,20.261 325.923 C 20.942 326.020,21.193 326.438,21.463 327.923 C 21.736 329.420,21.982 329.825,22.682 329.925 C 23.419 330.030,23.577 330.346,23.679 331.909 C 23.784 333.514,23.936 333.801,24.800 334.011 C 25.696 334.228,25.794 334.442,25.740 336.067 C 25.685 337.757,25.746 337.874,26.638 337.776 C 27.412 337.691,27.658 337.911,27.920 338.923 C 28.143 339.784,28.549 340.246,29.222 340.403 C 29.914 340.565,30.237 340.948,30.326 341.715 C 30.414 342.467,30.744 342.871,31.406 343.037 C 32.215 343.240,32.378 343.559,32.480 345.138 C 32.583 346.734,32.731 347.019,33.522 347.131 C 34.058 347.207,34.598 347.670,34.814 348.238 C 35.019 348.775,35.639 349.387,36.193 349.597 C 36.747 349.808,37.200 350.259,37.200 350.600 C 37.200 350.941,37.650 351.391,38.200 351.600 C 38.789 351.824,39.200 352.297,39.200 352.751 C 39.200 353.248,39.627 353.670,40.400 353.940 C 41.178 354.211,41.600 354.632,41.600 355.136 C 41.600 355.622,41.958 356.003,42.556 356.153 C 43.125 356.296,43.610 356.787,43.756 357.369 C 43.909 357.979,44.339 358.392,44.901 358.472 C 45.467 358.553,45.846 358.922,45.924 359.469 C 46.000 360.006,46.485 360.491,47.192 360.737 C 47.933 360.995,48.383 361.465,48.468 362.068 C 48.583 362.882,48.822 363.000,50.354 363.000 C 51.828 363.000,52.163 363.149,52.455 363.938 C 52.646 364.453,53.175 364.973,53.632 365.092 C 54.088 365.212,54.625 365.739,54.824 366.263 C 55.060 366.884,55.622 367.304,56.432 367.466 C 57.547 367.689,57.653 367.833,57.451 368.844 L 57.226 369.972 59.286 369.886 C 61.183 369.807,61.365 369.879,61.589 370.800 C 61.799 371.664,62.086 371.816,63.691 371.921 C 65.256 372.023,65.570 372.181,65.675 372.921 C 65.770 373.587,66.140 373.849,67.200 374.000 C 68.381 374.169,68.620 374.377,68.730 375.331 C 68.848 376.364,68.988 376.455,70.330 376.376 C 73.496 376.187,74.000 376.328,74.000 377.400 C 74.000 378.309,74.155 378.401,75.700 378.406 C 77.687 378.413,78.191 378.675,78.573 379.900 C 78.829 380.719,79.102 380.800,81.600 380.800 C 84.299 380.800,84.349 380.819,84.473 381.900 C 84.598 382.985,84.634 382.998,87.074 382.865 C 90.286 382.689,91.200 382.991,91.200 384.227 C 91.200 385.325,91.038 385.289,96.200 385.354 L 99.800 385.400 99.780 386.552 L 99.760 387.704 105.683 387.422 C 114.282 387.013,118.800 387.420,118.800 388.605 C 118.800 390.028,116.492 389.989,201.200 389.989 C 280.983 389.989,283.704 389.958,283.377 389.061 C 282.821 387.539,283.675 387.398,293.164 387.452 L 302.356 387.504 302.478 386.452 L 302.600 385.400 306.400 385.394 C 310.486 385.388,311.200 385.179,311.200 383.984 C 311.200 382.947,312.609 382.643,315.820 382.987 C 317.251 383.141,318.396 383.116,318.364 382.933 C 318.032 381.043,318.332 380.800,321.000 380.800 C 323.494 380.800,323.600 380.760,323.600 379.818 C 323.600 378.676,325.418 378.127,327.749 378.564 C 329.048 378.808,329.092 378.775,328.962 377.656 C 328.812 376.370,330.257 375.748,332.239 376.246 C 333.068 376.454,333.200 376.345,333.200 375.451 C 333.200 374.420,333.470 374.260,335.800 373.911 C 336.276 373.840,336.652 373.429,336.728 372.896 C 336.834 372.155,337.110 371.999,338.328 371.994 C 340.082 371.987,340.653 371.673,340.868 370.600 C 341.003 369.924,341.320 369.810,342.914 369.865 C 344.726 369.927,344.800 369.886,344.800 368.815 C 344.800 367.907,345.013 367.657,345.952 367.470 C 346.745 367.311,347.181 366.931,347.352 366.247 C 347.509 365.622,347.934 365.208,348.501 365.128 C 348.995 365.057,349.578 364.595,349.795 364.100 C 350.113 363.374,350.512 363.200,351.851 363.200 C 353.297 363.200,353.546 363.068,353.768 362.186 C 353.911 361.616,354.459 361.006,355.018 360.793 C 355.566 360.585,356.187 359.961,356.397 359.407 C 356.626 358.805,357.095 358.400,357.562 358.400 C 358.068 358.400,358.390 358.083,358.472 357.504 C 358.544 356.998,359.079 356.378,359.700 356.082 C 360.305 355.793,360.800 355.292,360.800 354.968 C 360.800 354.645,361.235 354.215,361.766 354.013 C 362.297 353.811,362.852 353.265,363.000 352.800 C 363.148 352.335,363.703 351.789,364.234 351.587 C 364.765 351.385,365.200 350.941,365.200 350.600 C 365.200 350.259,365.655 349.807,366.211 349.596 C 366.767 349.385,367.359 348.839,367.528 348.384 C 367.696 347.929,368.276 347.331,368.817 347.055 C 369.623 346.643,369.784 346.288,369.712 345.080 C 369.637 343.818,369.791 343.522,370.784 343.008 C 371.438 342.670,371.999 342.017,372.072 341.508 C 372.146 340.986,372.536 340.545,373.000 340.458 C 373.966 340.276,374.386 339.694,374.394 338.527 C 374.398 337.878,374.678 337.621,375.476 337.527 C 376.437 337.414,376.555 337.230,376.576 335.820 C 376.597 334.473,376.748 334.205,377.600 334.004 C 378.463 333.800,378.616 333.516,378.720 331.922 C 378.821 330.375,378.991 330.039,379.768 329.844 C 380.533 329.652,380.742 329.259,380.962 327.605 C 381.199 325.812,381.332 325.600,382.214 325.600 C 383.143 325.600,383.200 325.472,383.200 323.400 C 383.200 321.332,383.259 321.200,384.180 321.200 C 385.092 321.200,385.168 321.041,385.280 318.902 C 385.394 316.719,385.457 316.595,386.554 316.402 C 387.690 316.203,387.708 316.157,387.754 313.419 C 387.797 310.802,387.859 310.624,388.800 310.392 C 389.744 310.160,389.794 310.014,389.685 307.773 C 389.523 304.452,389.782 303.678,391.101 303.526 L 392.200 303.400 392.200 299.022 C 392.200 294.683,392.209 294.642,393.200 294.404 L 394.200 294.164 394.277 194.713 L 394.353 95.262 393.133 94.837 L 391.912 94.411 392.056 90.144 C 392.187 86.256,392.135 85.868,391.469 85.770 C 389.584 85.491,389.509 85.340,389.658 82.096 L 389.800 79.000 388.649 78.869 L 387.499 78.737 387.689 75.769 L 387.880 72.800 386.748 72.800 C 385.571 72.800,385.076 71.942,385.248 70.200 C 385.406 68.593,385.181 68.053,384.300 67.928 C 383.518 67.817,383.384 67.529,383.280 65.727 C 383.169 63.804,383.077 63.636,382.001 63.400 C 380.949 63.169,380.830 62.973,380.721 61.289 C 380.616 59.685,380.464 59.400,379.600 59.193 C 378.593 58.951,378.406 58.227,378.833 56.213 C 378.963 55.599,378.736 55.379,377.800 55.211 C 376.793 55.031,376.580 54.787,376.475 53.698 C 376.372 52.632,376.179 52.400,375.397 52.400 C 374.545 52.400,374.431 52.200,374.322 50.516 C 374.217 48.890,374.065 48.601,373.215 48.402 C 372.603 48.258,372.142 47.802,372.000 47.200 C 371.858 46.598,371.397 46.141,370.785 45.998 C 370.158 45.851,369.752 45.438,369.669 44.862 C 369.596 44.355,369.125 43.799,368.598 43.599 C 367.977 43.363,367.613 42.860,367.529 42.121 C 367.438 41.334,367.146 40.964,366.548 40.878 C 365.899 40.786,365.636 40.386,365.447 39.206 C 365.256 38.007,364.999 37.627,364.316 37.528 C 363.758 37.447,363.347 37.032,363.199 36.400 C 363.071 35.850,362.479 35.165,361.883 34.878 C 361.287 34.591,360.800 34.101,360.800 33.788 C 360.800 33.476,360.283 32.953,359.651 32.626 C 359.019 32.299,358.407 31.670,358.291 31.227 C 358.141 30.651,357.620 30.349,356.462 30.164 C 355.217 29.964,354.815 29.708,354.722 29.052 C 354.636 28.454,354.266 28.162,353.479 28.071 C 352.740 27.987,352.237 27.623,352.001 27.002 C 351.801 26.475,351.245 26.004,350.738 25.931 C 350.162 25.848,349.749 25.442,349.602 24.815 C 349.459 24.203,349.002 23.742,348.400 23.600 C 347.798 23.458,347.342 22.997,347.198 22.385 C 347.000 21.537,346.709 21.383,345.109 21.279 C 343.546 21.177,343.230 21.019,343.125 20.282 C 343.037 19.662,342.649 19.345,341.803 19.199 C 340.856 19.036,340.561 18.744,340.389 17.797 C 340.206 16.795,340.010 16.624,339.185 16.746 C 336.930 17.081,336.652 17.006,336.409 16.000 C 336.202 15.138,335.893 14.972,334.184 14.800 C 332.375 14.618,332.189 14.503,332.073 13.500 C 331.953 12.450,331.847 12.400,329.773 12.400 C 327.722 12.400,327.600 12.344,327.600 11.400 C 327.600 10.727,327.371 10.389,326.900 10.368 C 326.515 10.350,325.492 10.305,324.627 10.268 C 323.235 10.208,323.018 10.061,322.738 8.986 L 322.422 7.773 319.642 7.930 L 316.862 8.087 316.731 6.943 L 316.600 5.800 313.844 5.929 C 309.838 6.117,309.072 5.852,309.293 4.349 C 309.468 3.153,309.450 3.139,308.048 3.402 C 303.656 4.226,299.200 3.659,299.200 2.276 L 299.200 1.400 201.170 1.400 L 103.140 1.400 102.920 2.500 M206.980 79.384 C 208.658 79.705,210.519 80.311,211.115 80.731 C 211.712 81.151,212.604 81.620,213.098 81.774 C 213.591 81.927,214.221 82.268,214.498 82.532 C 214.774 82.796,215.754 83.600,216.675 84.320 C 223.323 89.511,227.480 102.188,224.638 108.600 C 224.248 109.480,223.703 110.929,223.427 111.821 C 218.512 127.714,194.364 131.863,183.181 118.736 C 167.594 100.439,183.092 74.813,206.980 79.384 M197.800 88.641 C 187.107 91.298,183.355 105.417,191.300 113.100 C 196.994 118.606,206.691 118.309,211.600 112.478 C 212.284 111.665,213.159 110.619,213.545 110.153 C 215.134 108.231,215.815 103.168,214.977 99.501 C 213.257 91.967,205.120 86.823,197.800 88.641 M229.398 137.241 C 230.362 137.484,231.460 138.024,231.837 138.441 C 232.215 138.859,232.752 139.200,233.030 139.200 C 233.309 139.200,234.617 140.398,235.939 141.862 C 239.759 146.095,240.143 148.200,239.888 163.494 C 239.611 180.073,238.705 184.285,234.490 188.600 C 231.683 191.474,229.446 192.572,222.000 194.729 L 221.000 195.019 220.776 213.409 L 220.552 231.800 219.457 234.794 C 218.855 236.441,218.011 238.163,217.581 238.620 C 217.151 239.077,216.800 239.653,216.800 239.900 C 216.800 240.652,211.793 244.823,209.324 246.127 C 207.047 247.331,206.883 247.356,201.200 247.378 L 195.400 247.400 192.830 246.039 C 188.597 243.797,184.146 238.980,183.367 235.800 C 183.206 235.140,182.787 234.158,182.437 233.618 C 181.882 232.763,181.785 230.233,181.681 214.019 C 181.616 203.780,181.416 195.256,181.238 195.078 C 181.060 194.900,179.944 194.508,178.757 194.207 C 168.604 191.630,164.500 187.190,162.993 177.151 C 161.351 166.219,162.401 146.354,164.753 143.850 C 165.219 143.354,165.600 142.765,165.600 142.541 C 165.600 141.778,171.060 137.709,172.800 137.175 C 174.451 136.669,227.371 136.731,229.398 137.241 M131.470 142.813 C 133.191 143.481,134.870 144.199,135.200 144.409 C 135.530 144.620,136.430 145.143,137.200 145.573 C 144.087 149.414,149.207 160.984,147.656 169.200 C 147.100 172.147,145.552 176.543,144.747 177.459 C 144.389 177.867,143.802 178.781,143.442 179.491 C 142.676 181.005,138.179 185.489,137.077 185.839 C 136.659 185.972,135.681 186.512,134.903 187.040 C 134.125 187.568,133.108 188.001,132.644 188.001 C 132.180 188.002,131.170 188.404,130.400 188.894 C 128.533 190.082,119.281 190.255,117.600 189.133 C 117.050 188.765,115.822 188.260,114.872 188.010 C 108.592 186.354,102.595 179.452,99.944 170.826 C 99.410 169.088,99.645 159.919,100.243 159.161 C 100.487 158.853,100.978 157.725,101.334 156.655 C 102.960 151.773,110.860 143.615,113.980 143.596 C 114.321 143.594,115.500 143.150,116.600 142.609 C 119.804 141.033,127.136 141.133,131.470 142.813 M285.800 142.609 C 286.900 143.150,288.079 143.594,288.420 143.596 C 292.720 143.622,299.957 152.474,302.464 160.776 C 303.191 163.184,302.669 171.130,301.661 172.985 C 301.187 173.856,300.800 174.819,300.800 175.124 C 300.800 178.372,292.120 186.799,287.528 188.010 C 286.578 188.260,285.350 188.765,284.800 189.133 C 283.159 190.228,273.948 190.042,271.815 188.870 C 270.944 188.392,269.983 188.000,269.680 188.000 C 267.550 188.000,259.993 181.929,258.534 179.046 C 258.187 178.361,257.644 177.503,257.326 177.140 C 257.009 176.777,256.504 175.552,256.205 174.418 C 255.905 173.283,255.422 172.068,255.130 171.716 C 254.129 170.511,254.417 161.463,255.548 158.600 C 258.487 151.158,262.377 146.542,267.800 144.061 C 273.995 141.227,281.724 140.604,285.800 142.609 M176.600 146.438 C 175.940 146.640,174.770 147.331,174.000 147.974 L 172.600 149.143 172.600 163.734 L 172.600 178.326 174.200 180.648 C 176.151 183.479,178.940 184.532,186.031 185.116 C 192.235 185.627,191.600 183.117,191.600 207.116 C 191.600 230.625,191.727 232.126,193.932 234.600 C 198.145 239.327,204.255 239.327,208.468 234.600 C 210.673 232.125,210.800 230.628,210.800 207.076 L 210.800 186.418 211.700 185.856 C 212.221 185.531,214.283 185.188,216.600 185.042 C 223.220 184.624,226.234 183.471,228.200 180.603 L 229.800 178.269 229.800 163.703 C 229.800 149.595,229.775 149.118,229.000 148.561 C 228.560 148.244,227.860 147.698,227.444 147.348 C 227.028 146.998,226.130 146.552,225.447 146.356 C 223.812 145.887,178.154 145.964,176.600 146.438 M119.627 152.047 C 117.766 152.546,116.173 153.267,115.366 153.976 C 114.657 154.598,113.925 155.173,113.739 155.254 C 112.824 155.649,111.065 158.709,110.156 161.492 C 105.071 177.039,126.443 187.068,135.711 173.484 C 139.381 168.105,137.982 157.603,133.254 155.046 C 132.894 154.852,132.141 154.268,131.580 153.748 C 129.265 151.604,124.045 150.861,119.627 152.047 M276.000 151.638 C 275.230 151.864,273.938 152.221,273.129 152.432 C 263.379 154.972,261.521 170.511,270.170 177.175 C 275.659 181.404,286.660 180.171,289.567 175.000 C 289.815 174.560,290.422 173.649,290.918 172.976 C 297.711 163.740,286.996 148.413,276.000 151.638 M151.398 200.162 C 154.157 201.038,158.800 203.943,158.800 204.794 C 158.800 204.957,159.328 205.754,159.973 206.566 C 163.518 211.027,163.481 240.437,159.921 247.228 C 158.429 250.074,155.567 253.233,153.600 254.205 C 152.830 254.585,151.930 255.130,151.600 255.415 C 151.270 255.700,149.830 256.138,148.400 256.388 C 142.803 257.365,143.200 255.826,143.200 276.528 C 143.200 292.394,143.148 293.658,142.400 296.000 C 141.960 297.377,141.600 298.682,141.600 298.900 C 141.600 300.509,137.321 305.642,134.447 307.481 C 130.088 310.269,121.731 312.002,119.914 310.494 C 119.625 310.255,118.492 309.843,117.395 309.578 C 112.999 308.519,107.329 303.455,106.223 299.600 C 106.065 299.050,105.546 297.790,105.069 296.800 C 104.229 295.055,104.196 294.438,104.001 276.519 C 103.773 255.527,104.149 257.319,99.815 256.565 C 98.143 256.275,96.286 255.692,95.688 255.271 C 95.089 254.850,94.213 254.385,93.740 254.238 C 90.259 253.159,86.663 247.030,85.548 240.280 C 84.393 233.283,84.590 213.002,85.848 209.536 C 87.486 205.019,90.963 201.771,95.921 200.126 C 98.571 199.247,98.868 199.237,123.485 199.219 L 148.370 199.200 151.398 200.162 M307.714 200.548 C 315.769 203.956,317.600 208.370,317.600 224.382 C 317.600 246.745,313.908 254.582,302.428 256.590 C 298.096 257.348,298.403 255.922,298.383 275.376 C 298.365 292.759,298.300 293.644,296.731 298.000 C 294.139 305.196,290.055 308.452,280.623 310.839 C 279.000 311.250,274.940 310.950,274.596 310.393 C 274.490 310.221,273.457 309.855,272.301 309.579 C 271.146 309.304,269.643 308.656,268.962 308.139 C 268.281 307.623,267.555 307.200,267.347 307.200 C 266.001 307.200,261.379 300.951,260.633 298.124 C 260.348 297.045,259.865 295.721,259.558 295.182 C 259.114 294.398,258.961 290.548,258.801 276.119 C 258.573 255.603,258.933 257.316,254.692 256.579 C 252.837 256.256,251.161 255.678,250.209 255.032 C 249.373 254.464,248.478 254.000,248.221 254.000 C 245.844 254.000,241.550 246.553,240.650 240.870 C 239.653 234.578,239.716 213.553,240.742 210.181 C 242.382 204.788,246.751 200.971,253.000 199.473 C 253.440 199.368,265.320 199.308,279.400 199.341 L 305.000 199.400 307.714 200.548 M97.326 210.375 C 95.072 211.758,95.011 212.081,94.872 223.400 C 94.605 245.045,95.623 247.109,106.768 247.509 C 111.256 247.671,112.461 247.842,113.241 248.431 L 114.200 249.154 114.400 271.877 C 114.586 292.960,114.653 294.701,115.338 296.000 C 118.233 301.497,126.121 302.542,130.423 297.999 C 133.192 295.074,133.199 295.001,133.205 271.069 C 133.208 259.591,133.316 249.810,133.444 249.333 C 133.789 248.045,135.252 247.681,140.927 247.472 C 147.260 247.238,148.893 246.462,151.185 242.599 L 152.600 240.214 152.600 226.515 L 152.600 212.816 151.094 211.308 L 149.587 209.800 124.094 209.697 C 99.400 209.596,98.560 209.618,97.326 210.375 M252.126 210.380 C 249.878 211.751,249.811 212.097,249.671 223.200 C 249.393 245.283,250.684 247.589,263.326 247.598 C 266.352 247.600,267.936 247.915,268.800 248.687 C 268.910 248.785,269.090 259.156,269.200 271.733 C 269.424 297.395,269.207 295.630,272.523 298.686 C 276.715 302.551,284.925 300.840,287.333 295.600 C 287.654 294.902,287.854 287.737,287.996 271.864 L 288.200 249.129 289.144 248.364 C 289.930 247.729,290.746 247.600,293.990 247.600 C 299.807 247.600,303.952 246.476,304.738 244.685 C 304.814 244.512,305.327 243.835,305.878 243.180 C 307.242 241.560,307.703 235.891,307.530 222.865 C 307.388 212.126,307.314 211.745,305.074 210.380 C 303.089 209.169,254.111 209.169,252.126 210.380 " stroke="none" fill="#fbfbfb" fill-rule="evenodd"></path></g></svg>