<svg xmlns="http://www.w3.org/2000/svg" version="1.1" xmlns:xlink="http://www.w3.org/1999/xlink" xmlns:svgjs="http://svgjs.dev/svgjs" width="1000" height="1000" viewBox="0 0 1000 1000"><rect width="1000" height="1000" fill="#ffffff"></rect><g transform="matrix(0.7,0,0,0.7,149.5757592760309,383.1157504372794)"><svg viewBox="0 0 396 132" data-background-color="#aaaaaa" preserveAspectRatio="xMidYMid meet" height="333" width="1000" xmlns="http://www.w3.org/2000/svg" xmlns:xlink="http://www.w3.org/1999/xlink"><defs></defs><g id="tight-bounds" transform="matrix(1,0,0,1,0.23999903813108858,0.18927903165646853)"><svg viewBox="0 0 395.52 131.6214419366871" height="131.6214419366871" width="395.52"><g><svg viewBox="0 0 395.52 131.6214419366871" height="131.6214419366871" width="395.52"><g transform="matrix(1,0,0,1,0,81.34733150723925)"><svg viewBox="0 0 395.52 50.274110429447845" height="50.274110429447845" width="395.52"><g><svg viewBox="0 0 395.52 50.274110429447845" height="50.274110429447845" width="395.52"><g><svg viewBox="0 0 395.52 50.274110429447845" height="50.274110429447845" width="395.52"><g transform="matrix(1,0,0,1,0,0)"><svg width="395.52" viewBox="1.5499999523162842 -32.650001525878906 260.7799987792969 33.150001525878906" height="50.274110429447845" data-palette-color="#31d2f2"><path d="M14.25-32.6Q18.35-32.6 22.4-30.95L22.4-30.95 21.3-25.1 20.3-24.7Q18.6-25.9 16.78-26.6 14.95-27.3 13.45-27.3L13.45-27.3Q11.45-27.3 10.25-26.23 9.05-25.15 9.05-23.75L9.05-23.75Q9.05-22.3 10.38-21.3 11.7-20.3 14.55-18.95L14.55-18.95Q17.3-17.7 19.03-16.63 20.75-15.55 21.98-13.8 23.2-12.05 23.2-9.5L23.2-9.5Q23.2-6.75 21.7-4.48 20.2-2.2 17.45-0.88 14.7 0.45 11.1 0.45L11.1 0.45Q6.35 0.45 1.55-1.6L1.55-1.6 2.5-7.9 3.25-8.3Q5.25-6.55 7.63-5.63 10-4.7 11.85-4.7L11.85-4.7Q14.05-4.7 15.28-5.78 16.5-6.85 16.5-8.35L16.5-8.35Q16.5-9.95 15.18-10.95 13.85-11.95 10.9-13.35L10.9-13.35Q8.2-14.55 6.5-15.6 4.8-16.65 3.6-18.4 2.4-20.15 2.4-22.65L2.4-22.65Q2.4-25.45 3.9-27.73 5.4-30 8.1-31.3 10.8-32.6 14.25-32.6L14.25-32.6ZM41.55-32.65Q48.35-32.65 52.02-28.53 55.7-24.4 55.7-16.8L55.7-16.8Q55.7-8.5 51.7-4 47.7 0.5 40.4 0.5L40.4 0.5Q33.65 0.5 29.97-3.73 26.3-7.95 26.3-15.7L26.3-15.7Q26.3-23.85 30.27-28.25 34.25-32.65 41.55-32.65L41.55-32.65ZM40.95-27.2Q36.95-27.2 35.15-24.7 33.35-22.2 33.35-16.55L33.35-16.55Q33.35-10.1 35.12-7.35 36.9-4.6 41-4.6L41-4.6Q45-4.6 46.8-7.13 48.6-9.65 48.6-15.4L48.6-15.4Q48.6-21.75 46.82-24.48 45.05-27.2 40.95-27.2L40.95-27.2ZM73.84-32.6Q78.55-32.6 82.3-30.65L82.3-30.65 81.09-25 80.55-24.75Q79.05-25.8 77.25-26.4 75.45-27 73.55-27L73.55-27Q65.59-27 65.59-16.55L65.59-16.55Q65.59-10.9 67.67-8.08 69.75-5.25 73.75-5.25L73.75-5.25Q75.59-5.25 77.57-5.83 79.55-6.4 81.15-7.4L81.15-7.4 81.75-7.05 81.2-1.3Q77.4 0.45 73.2 0.45L73.2 0.45Q66 0.45 62.22-3.75 58.45-7.95 58.45-15.8L58.45-15.8Q58.45-23.8 62.47-28.2 66.5-32.6 73.84-32.6L73.84-32.6ZM93.69-32.2L93.29-10.2 93.59 0 86.79 0 87.14-9.6 86.79-32.2 93.69-32.2ZM116.99-32.2L126.84 0 119.94 0 119.14-4.2 118.29-7.2 111.99-7.35 106.44-7.2 105.59-4.55 104.74 0 98.04 0 108.94-32.2 116.99-32.2ZM112.49-12.35L116.84-12.45 113.04-25.85 112.59-25.85 108.19-12.45 112.49-12.35ZM148.79-5.6L149.19-5.05 148.74 0 131.34 0 131.69-9.6 131.34-32.2 138.24-32.2 137.84-10.2 137.99-5.6 148.79-5.6ZM175.03-32.6Q180.28-32.6 184.48-30.65L184.48-30.65 183.03-24.55 182.38-24.45Q179.93-25.85 178.01-26.48 176.08-27.1 173.88-27.1L173.88-27.1Q169.43-27.1 167.38-24.45 165.33-21.8 165.33-15.75L165.33-15.75Q165.33-11.75 166.21-9.4 167.08-7.05 168.93-5.98 170.78-4.9 173.83-4.9L173.83-4.9Q174.88-4.9 175.81-5.05 176.73-5.2 178.08-5.6L178.08-5.6 178.18-8.35 178.08-13.45 184.33-13.9 184.18-9.4 184.33-1.55Q178.33 0.45 173.28 0.45L173.28 0.45Q165.78 0.45 162.01-3.65 158.23-7.75 158.23-15.4L158.23-15.4Q158.23-23.75 162.61-28.18 166.98-32.6 175.03-32.6L175.03-32.6ZM207.53-12.8Q211.43-6.6 215.28-1.6L215.28-1.6 215.18-0.85Q211.93 0.3 208.53 0.5L208.53 0.5 207.83-0.05Q204.23-6.25 201.98-10.85L201.98-10.85 197.13-10.85 197.13-10.2 197.43 0 190.63 0 190.98-9.6 190.63-32.2 202.98-32.25Q208.03-32.25 210.78-29.78 213.53-27.3 213.53-22.7L213.53-22.7Q213.53-19.6 211.96-17.03 210.38-14.45 207.53-12.8L207.53-12.8ZM197.43-27.05L197.23-16.1 202.18-15.9Q206.43-17.35 206.43-22.05L206.43-22.05Q206.43-24.6 205.06-25.88 203.68-27.15 200.83-27.25L200.83-27.25 197.43-27.05ZM227.03-32.2L226.63-10.2 226.93 0 220.13 0 220.48-9.6 220.13-32.2 227.03-32.2ZM247.83-32.4Q254.83-32.4 258.58-28.5 262.33-24.6 262.33-17.3L262.33-17.3Q262.33-8.75 258.13-4.2 253.93 0.35 246.13 0.35L246.13 0.35Q243.78 0.35 240.5 0.25 237.23 0.15 234.88 0L234.88 0 235.23-9.6 234.88-32.2 247.83-32.4ZM247.33-4.9Q255.28-4.9 255.28-15.75L255.28-15.75Q255.28-21.65 253.35-24.33 251.43-27 247.33-27L247.33-27Q244.68-27 241.68-26.75L241.68-26.75 241.38-10.2 241.53-5.25Q245.03-4.9 247.33-4.9L247.33-4.9Z" opacity="1" transform="matrix(1,0,0,1,0,0)" fill="#000000" class="undefined-text-0" data-fill-palette-color="primary" id="text-0"></path></svg></g></svg></g></svg></g></svg></g><g transform="matrix(1,0,0,1,163.02058969325154,0)"><svg viewBox="0 0 69.47882061349691 69.47882061349692" height="69.47882061349692" width="69.47882061349691"><g><svg></svg></g><g id="icon-0"><svg viewBox="0 0 69.47882061349691 69.47882061349692" height="69.47882061349692" width="69.47882061349691"><g><path d="M20.844 69.479c-11.512 0-20.844-9.332-20.844-20.844v-27.791c0-11.512 9.332-20.844 20.844-20.844h27.791c11.512 0 20.844 9.332 20.844 20.844v27.791c0 11.512-9.332 20.844-20.844 20.844z" fill="#000000" data-fill-palette-color="accent"></path></g><g transform="matrix(1,0,0,1,13.89576412269938,13.895764122699386)"><svg viewBox="0 0 41.68729236809815 41.68729236809815" height="41.68729236809815" width="41.68729236809815"><g><svg xmlns="http://www.w3.org/2000/svg" xmlns:xlink="http://www.w3.org/1999/xlink" version="1.1" x="0" y="0" viewBox="0 0 48 48" style="enable-background:new 0 0 48 48;" xml:space="preserve" height="41.68729236809815" width="41.68729236809815" class="icon-x-0" data-fill-palette-color="quaternary" id="x-0"><g fill="#046380" data-fill-palette-color="quaternary"><path d="M8.001 23C5.243 23 3 20.757 3 18s2.243-5 5.001-5C10.758 13 13 15.243 13 18S10.758 23 8.001 23zM8.001 15C6.348 15 5 16.346 5 18s1.348 3 3.001 3S11 19.654 11 18 9.654 15 8.001 15z" fill="#046380" data-fill-palette-color="quaternary"></path><path d="M40.001 23C37.243 23 35 20.757 35 18s2.243-5 5.001-5C42.758 13 45 15.243 45 18S42.758 23 40.001 23zM40.001 15C38.348 15 37 16.346 37 18s1.348 3 3.001 3S43 19.654 43 18 41.654 15 40.001 15z" fill="#046380" data-fill-palette-color="quaternary"></path><path d="M24.001 10C21.243 10 19 7.757 19 5s2.243-5 5.001-5C26.758 0 29 2.243 29 5S26.758 10 24.001 10zM24.001 2C22.348 2 21 3.346 21 5s1.348 3 3.001 3S27 6.654 27 5 25.654 2 24.001 2z" fill="#046380" data-fill-palette-color="quaternary"></path><path d="M8 48c-2.206 0-4-1.794-4-4v-7.044C1.174 36.689 0 35.197 0 32v-4c0-1.542 1.458-3 3-3h10c1.542 0 3 1.458 3 3v4c0 3.197-1.174 4.689-4 4.956V44C12 46.206 10.206 48 8 48zM3 27c-0.448 0-1 0.551-1 1v4c0 2.439 0.561 3 3 3h1v9c0 1.104 0.896 2 2 2s2-0.896 2-2v-9h1c2.439 0 3-0.561 3-3v-4c0-0.449-0.552-1-1-1H3z" fill="#046380" data-fill-palette-color="quaternary"></path><path d="M24 35c-2.206 0-4-1.794-4-4v-7.044c-2.826-0.266-4-1.759-4-4.956v-4c0-1.542 1.458-3 3-3h10c1.542 0 3 1.458 3 3v4c0 3.197-1.174 4.69-4 4.956V31C28 33.206 26.206 35 24 35zM19 14c-0.448 0-1 0.551-1 1v4c0 2.439 0.561 3 3 3h1v9c0 1.104 0.896 2 2 2s2-0.896 2-2v-9h1c2.439 0 3-0.561 3-3v-4c0-0.449-0.552-1-1-1H19z" fill="#046380" data-fill-palette-color="quaternary"></path><path d="M40 48c-2.206 0-4-1.794-4-4v-7.044c-2.826-0.267-4-1.759-4-4.956v-4c0-1.542 1.458-3 3-3h10c1.542 0 3 1.458 3 3v4c0 3.197-1.174 4.689-4 4.956V44C44 46.206 42.206 48 40 48zM35 27c-0.448 0-1 0.551-1 1v4c0 2.439 0.561 3 3 3h1v9c0 1.104 0.896 2 2 2s2-0.896 2-2v-9h1c2.439 0 3-0.561 3-3v-4c0-0.449-0.552-1-1-1H35z" fill="#046380" data-fill-palette-color="quaternary"></path></g></svg></g></svg></g></svg></g></svg></g><g></g></svg></g></svg><rect width="395.52" height="131.6214419366871" fill="none" stroke="none" visibility="hidden"></rect></g></svg></g></svg>